<svg width="45" height="56" fill="none" xmlns="http://www.w3.org/2000/svg"><g clip-path="url(#a)" fill="#fff"><path d="M4.396 56c-.297 0-.6039-.2958-.6039-.5915v-4.9296c0-.2958.297-.5916.604-.5916h4.396c.297 0 .604.2958.604.5916s-.297.5915-.604.5915h-3.802v4.3381c0 .2957-.297.5915-.604.5915h.01ZM40.594 56c-.297 0-.604-.2958-.604-.5915v-4.3381h-3.8019c-.2971 0-.604-.2957-.604-.5915s.297-.5916.604-.5916h4.396c.297 0 .604.2958.604.5916v4.9296c.099.2957-.1981.5915-.604.5915h.0099Z"/><path d="M36.297 51.0704H8.802c-.297 0-.604-.2958-.604-.5915v-37.662c0-.2958.297-.5916.604-.5916h5c.297 0 .6039.2958.6039.5916s-.297.5915-.6039.5915H9.406v36.3803h26.2969V13.507h-4.396c-.297 0-.604-.2957-.604-.5915s.2971-.5916.604-.5916h5c.297 0 .604.2958.604.5916v37.5634c0 .2957-.2971.5915-.604.5915h-.0099Z"/><path d="M31.297 13.507H13.802c-.2971 0-.604-.2957-.604-.5915v-2.4648c0-.2958.297-.5915.604-.5915.3069 0 .6039.2957.6039.5915v1.7746h16.297v-1.8732c0-.2958.2971-.5915.604-.5915s.604.2957.604.5915v2.4648c0 .3944-.2971.6901-.604.6901h-.0099Z"/><path d="M36.297 11.0423H8.802c-.297 0-.604-.2958-.604-.5916 0-2.7606 1.099-5.4225 3.099-7.3944C13.297 1.0845 16 0 18.7921 0h7.495c5.802 0 10.604 4.6338 10.604 10.4507v.0986c0 .1972-.2971.493-.604.493h.0099ZM9.396 9.7606h26.198c-.297-4.831-4.396-8.676-9.396-8.676h-7.4951c-2.495 0-4.9009.9858-6.6039 2.6619-1.604 1.676-2.495 3.7465-2.703 6.014ZM11.901 24.3521c-.2971 0-.604-.2958-.604-.5915v-7.8874c0-.2957.297-.5915.604-.5915h4.297c.297 0 .6039.2958.6039.5915 0 .2958-.297.5916-.6039.5916h-3.604v7.1972c-.099.4929-.396.6901-.7029.6901h.0099Z"/><path d="M16.099 24.3521c-.2971 0-.604-.2958-.604-.5915v-7.8874c0-.2957.297-.5915.604-.5915h4.297c.297 0 .6039.2958.6039.5915 0 .2958-.297.5916-.6039.5916h-3.604v7.1972c0 .4929-.297.6901-.7029.6901h.0099Z"/><path d="M20.3961 24.3521c-.2971 0-.604-.2958-.604-.5915v-7.8874c0-.2957.297-.5915.604-.5915h4.297c.297 0 .604.2958.604.5915 0 .2958-.2971.5916-.604.5916h-3.604v7.1972c-.099.4929-.396.6901-.7029.6901h.0099Z"/><path d="M24.5941 24.3521c-.2971 0-.604-.2958-.604-.5915v-7.8874c0-.2957.297-.5915.604-.5915h4.297c.297 0 .604.2958.604.5915 0 .2958-.2971.5916-.604.5916h-3.604v7.1972c0 .4929-.297.6901-.7029.6901h.0099Z"/><path d="M33.099 24.3521c-.297 0-.604-.2958-.604-.5915v-7.1972h-3v7.1972c0 .2957-.297.5915-.6039.5915-.307 0-.604-.2958-.604-.5915v-7.8874c0-.2957.297-.5915.604-.5915h4.297c.297 0 .604.2958.604.5915v7.8874c0 .3943-.2971.5915-.703.5915h.0099ZM11.901 32.2394c-.2971 0-.604-.2957-.604-.5915v-7.8873c0-.2958.297-.5916.604-.5916h4.297c.297 0 .6039.2958.6039.5916 0 .2957-.297.5915-.6039.5915h-3.604v7.1972c-.099.3944-.396.6901-.7029.6901h.0099Z"/><path d="M16.099 32.2394c-.2971 0-.604-.2957-.604-.5915v-7.8873c0-.2958.297-.5916.604-.5916h4.297c.297 0 .6039.2958.6039.5916 0 .2957-.297.5915-.6039.5915h-3.604v7.1972c0 .3944-.297.6901-.7029.6901h.0099Z"/><path d="M20.3961 32.2394c-.2971 0-.604-.2957-.604-.5915v-7.8873c0-.2958.297-.5916.604-.5916h4.297c.297 0 .604.2958.604.5916 0 .2957-.2971.5915-.604.5915h-3.604v7.1972c-.099.3944-.396.6901-.7029.6901h.0099Z"/><path d="M24.5941 32.2394c-.2971 0-.604-.2957-.604-.5915v-7.8873c0-.2958.297-.5916.604-.5916h4.297c.297 0 .604.2958.604.5916 0 .2957-.2971.5915-.604.5915h-3.604v7.1972c0 .3944-.297.6901-.7029.6901h.0099Z"/><path d="M33.099 32.2394c-.297 0-.604-.2957-.604-.5915v-7.1972h-3v7.1972c0 .2958-.297.5915-.6039.5915-.307 0-.604-.2957-.604-.5915v-7.8873c0-.2958.297-.5916.604-.5916h4.297c.297 0 .604.2958.604.5916v7.8873c0 .2958-.2971.5915-.703.5915h.0099ZM11.901 40.1268c-.2971 0-.604-.2958-.604-.5916v-7.8873c0-.2958.297-.5916.604-.5916h4.297c.297 0 .6039.2958.6039.5916s-.297.5915-.6039.5915h-3.604v7.1972c-.099.3944-.396.6902-.7029.6902h.0099Z"/><path d="M16.099 40.1268c-.2971 0-.604-.2958-.604-.5916v-7.8873c0-.2958.297-.5916.604-.5916h4.297c.297 0 .6039.2958.6039.5916s-.297.5915-.6039.5915h-3.604v7.1972c0 .3944-.297.6902-.7029.6902h.0099Z"/><path d="M20.3961 40.1268c-.2971 0-.604-.2958-.604-.5916v-7.8873c0-.2958.297-.5916.604-.5916h4.297c.297 0 .604.2958.604.5916s-.2971.5915-.604.5915h-3.604v7.1972c-.099.3944-.396.6902-.7029.6902h.0099Z"/><path d="M24.5941 40.1268c-.2971 0-.604-.2958-.604-.5916v-7.8873c0-.2958.297-.5916.604-.5916h4.297c.297 0 .604.2958.604.5916s-.2971.5915-.604.5915h-3.604v7.1972c0 .3944-.297.6902-.7029.6902h.0099Z"/><path d="M33.099 40.1268c-.297 0-.604-.2958-.604-.5916V32.338h-3v7.1972c0 .2958-.297.5916-.6039.5916-.307 0-.604-.2958-.604-.5916v-7.8873c0-.2958.297-.5916.604-.5916h4.297c.297 0 .604.2958.604.5916v7.8873c0 .2958-.2971.5916-.703.5916h.0099ZM16.099 48.0141h-4.297c-.2971 0-.604-.2958-.604-.5916v-7.8873c0-.2958.297-.5915.604-.5915h4.297c.297 0 .6039.2957.6039.5915s-.297.5916-.6039.5916h-3.604v6.6056h3.604c.297 0 .6039.2958.6039.5915.0991.3944-.198.6902-.6039.6902Z"/><path d="M20.396 48.0141h-4.297c-.2971 0-.604-.2958-.604-.5916v-7.8873c0-.2958.297-.5915.604-.5915h4.297c.297 0 .6039.2957.6039.5915s-.297.5916-.6039.5916h-3.604v6.6056h3.604c.297 0 .6039.2958.6039.5915 0 .3944-.297.6902-.6039.6902Z"/><path d="M24.5941 48.0141h-4.297c-.2971 0-.604-.2958-.604-.5916v-7.8873c0-.2958.297-.5915.604-.5915h4.297c.297 0 .604.2957.604.5915s-.2971.5916-.604.5916h-3.604v6.6056h3.604c.297 0 .604.2958.604.5915.099.3944-.1981.6902-.604.6902Z"/><path d="M28.901 48.0141h-4.297c-.2971 0-.604-.2958-.604-.5916v-7.8873c0-.2958.297-.5915.604-.5915h4.297c.297 0 .604.2957.604.5915s-.2971.5916-.604.5916h-3.604v6.6056h3.604c.297 0 .604.2958.604.5915 0 .3944-.2971.6902-.604.6902Z"/><path d="M33.099 48.0141h-4.297c-.2971 0-.604-.2958-.604-.5916v-7.8873c0-.2958.297-.5915.604-.5915h4.297c.297 0 .604.2957.604.5915v7.8873c.099.2958-.1981.5916-.604.5916Zm-3.604-1.2817h3v-6.6056h-3v6.6056ZM44.396 56H.604C.307 56 0 55.7042 0 55.4084c0-.2957.297-.5915.604-.5915h43.8019c.2971 0 .604.2958.604.5915 0 .2958-.297.5916-.604.5916h-.0099ZM33.099 8.5775H11.901c-.2971 0-.604-.2958-.604-.5916s.297-.5915.604-.5915h21.297c.297 0 .6039.2957.6039.5915s-.297.5916-.7029.5916Z"/></g><defs><clipPath id="a"><path fill="#fff" d="M0 0h45v56H0z"/></clipPath></defs></svg>