<svg width="240" height="89" fill="none" xmlns="http://www.w3.org/2000/svg"><path d="M2.3608 85V69.233l30.1151-24.912c1.9971-1.6555 3.7052-3.2059 5.1242-4.6513 1.4454-1.4715 2.549-2.9826 3.3111-4.533.7884-1.5504 1.1826-3.2716 1.1826-5.1637 0-2.076-.4468-3.8498-1.3402-5.3214-.8672-1.4716-2.076-2.6015-3.6265-3.3899-1.5504-.8146-3.3373-1.2219-5.3608-1.2219-2.0234 0-3.8103.4073-5.3608 1.2219-1.5241.8146-2.7066 2.0103-3.5475 3.587-.841 1.5767-1.2614 3.495-1.2614 5.755H.7841c0-5.6761 1.2745-10.5639 3.8235-14.6634 2.549-4.0994 6.1491-7.2528 10.8004-9.4602 4.6513-2.2074 10.1041-3.311 16.3583-3.311 6.4645 0 12.0618 1.038 16.7919 3.114 4.7564 2.0496 8.4223 4.9403 10.9976 8.6718 2.6015 3.7315 3.9023 8.1069 3.9023 13.1261 0 3.1008-.6438 6.1885-1.9315 9.2631-1.2876 3.0483-3.6001 6.4251-6.9375 10.1303-3.3373 3.7053-8.0806 8.1201-14.2297 13.2444l-7.5682 6.3068v.473h31.5341V85H2.3608Zm106.9202 2.2074c-7.332-.0263-13.6647-1.7212-18.9992-5.0849-5.3345-3.3636-9.4471-8.212-12.3377-14.5451-2.8907-6.3331-4.3228-13.9275-4.2965-22.7834.0262-8.8821 1.4715-16.424 4.3359-22.6257 2.8906-6.2017 6.99-10.9187 12.2983-14.1509C95.6163 4.7851 101.949 3.169 109.281 3.169c7.332 0 13.665 1.6293 18.999 4.8878 5.335 3.2323 9.447 7.9492 12.338 14.1509s4.323 13.7305 4.297 22.5863c0 8.9084-1.446 16.5292-4.336 22.8622-2.891 6.3331-7.004 11.1815-12.338 14.5451-5.308 3.3374-11.628 5.0061-18.96 5.0061Zm0-17.8168c3.784 0 6.885-1.9709 9.303-5.9126 2.444-3.9681 3.652-10.196 3.626-18.684 0-5.5447-.552-10.0777-1.655-13.599-1.104-3.5214-2.628-6.1229-4.573-7.8047-1.945-1.7081-4.178-2.5622-6.701-2.5622-3.784 0-6.872 1.9183-9.263 5.755-2.3914 3.8366-3.6133 9.907-3.6659 18.2109-.0263 5.6499.5124 10.3012 1.6161 13.9539 1.1037 3.6264 2.6278 6.3068 4.5728 8.0412 1.971 1.7343 4.217 2.6015 6.74 2.6015Zm92.119.473v-4.2571c0-3.4162.736-6.5696 2.207-9.4602 1.498-2.8906 3.666-5.2163 6.504-6.9769 2.838-1.7607 6.294-2.641 10.367-2.641 4.178 0 7.687.8672 10.525 2.6016 2.864 1.7343 5.032 4.0468 6.504 6.9375 1.471 2.8906 2.207 6.0703 2.207 9.539v4.2571c0 3.4162-.749 6.5696-2.247 9.4603-1.471 2.8906-3.639 5.2162-6.504 6.9769-2.864 1.7606-6.359 2.641-10.485 2.641-4.126 0-7.607-.8804-10.446-2.641-2.838-1.7607-4.992-4.0863-6.464-6.9769-1.445-2.8907-2.168-6.0441-2.168-9.4603Zm13.717-4.2571v4.2571c0 1.4979.368 2.9826 1.104 4.4542.762 1.4453 2.181 2.168 4.257 2.168 2.181 0 3.613-.7095 4.297-2.1286.709-1.419 1.064-2.9169 1.064-4.4936v-4.2571c0-1.5767-.329-3.1008-.985-4.5724-.657-1.4716-2.116-2.2074-4.376-2.2074-2.076 0-3.495.7358-4.257 2.2074-.736 1.4716-1.104 2.9957-1.104 4.5724Zm-55.973-41.9403v-4.2571c0-3.4688.749-6.6485 2.247-9.539 1.524-2.8907 3.705-5.2032 6.543-6.9376C170.773 1.1981 174.202.331 178.222.331c4.179 0 7.687.8672 10.525 2.6015 2.864 1.7344 5.032 4.0469 6.504 6.9375 1.471 2.8906 2.207 6.0703 2.207 9.5391v4.2571c0 3.4687-.749 6.6353-2.247 9.4996-1.471 2.8644-3.639 5.1506-6.503 6.8587-2.865 1.7081-6.36 2.5621-10.486 2.5621-4.125 0-7.607-.8671-10.445-2.6015-2.838-1.7344-4.993-4.0338-6.465-6.8981-1.445-2.8643-2.168-6.0046-2.168-9.4208Zm13.875-4.2571v4.2571c0 1.5767.368 3.0746 1.104 4.4936.736 1.419 2.102 2.1285 4.099 2.1285 2.182 0 3.614-.7095 4.297-2.1285.71-1.419 1.064-2.9169 1.064-4.4936v-4.2571c0-1.5767-.328-3.1009-.985-4.5725-.657-1.4715-2.116-2.2073-4.376-2.2073-2.076 0-3.468.762-4.178 2.2862-.683 1.4979-1.025 2.9957-1.025 4.4936ZM165.845 85l55.5-80.7273h11.195L177.04 85h-11.195Z" fill="#fff"/></svg>