<svg width="112" height="56" fill="none" xmlns="http://www.w3.org/2000/svg"><g clip-path="url(#a)" fill="#fff"><path d="M66.7347 22.8604h-4.8133v2.0902h4.8133v-2.0902ZM42.5377 22.6282h-4.8133v2.0902h4.8133v-2.0902ZM27.506 34.0887c-5.9063 0-10.7096 4.8367-10.7096 10.784 0 5.9474 4.8033 10.784 10.7096 10.784 5.9064 0 10.7097-4.8366 10.7097-10.784 0-5.9473-4.8033-10.784-10.7097-10.784Zm0 18.3166c-4.1214 0-7.4807-3.3826-7.4807-7.5326s3.3593-7.5326 7.4807-7.5326c4.1214 0 7.4807 3.3826 7.4807 7.5326s-3.3593 7.5326-7.4807 7.5326Z"/><path d="M27.5062 40.965c-2.1459 0-3.8807 1.7469-3.8807 3.9077s1.7348 3.9077 3.8807 3.9077c2.146 0 3.8808-1.7469 3.8808-3.9077s-1.7348-3.9077-3.8808-3.9077Z"/><path d="M2.176 38.6426c-.1303.8785.4613 1.6964 1.3237 1.8378l10.0578 1.7165c.7922.1414 1.5644-.3433 1.805-1.1208 1.6646-5.3819 6.5381-9.0069 12.1336-9.0069 7.0094 0 12.7052 5.7353 12.7052 12.7934 0 .8987.722 1.6257 1.6144 1.6257H71.899c.8724 0 1.5944-.7068 1.6145-1.5853.0802-3.3422 1.4339-6.4825 3.8206-8.8352 2.3866-2.3527 5.5453-3.6552 8.8745-3.6552 5.2245 0 9.9977 3.3119 11.8628 8.2394.2507.6563.8825 1.0703 1.5844 1.04l4.7032-.2221c.471-.0202.912-.2524 1.203-.6361l6.097-7.9972c.241-.3231.361-.7169.331-1.1208l-.983-12.1269c-.06-.7977-.692-1.4237-1.484-1.4843l-28.8397-2.1609L72.8717.9189c-.2808-.5352-.8223-.8684-1.4239-.8684L9.3559-.0101c-.7922 0-1.474.5857-1.5944 1.3834l-1.3838 9.2693H0V31.736h3.2089L2.176 38.6325v.0101Zm8.5637-35.3912 59.7354.0605 7.7815 14.9542c.2607.4948.7521.828 1.3036.8684l28.3588 2.1205.822 10.1175-5.265 6.9066-2.837.1414c-2.6077-5.5637-8.2533-9.229-14.4103-9.229-4.1816 0-8.1325 1.6257-11.1308 4.5741-2.6073 2.5748-4.2418 5.8969-4.673 9.4915H43.37c-.8122-8.088-7.611-14.419-15.8438-14.419-6.5381 0-12.294 3.938-14.7308 9.9459l-7.1698-1.2218 5.1141-34.3108Z"/><path d="M86.2087 34.4421c-5.9064 0-10.7097 4.8367-10.7097 10.784 0 5.9474 4.8033 10.784 10.7097 10.784 5.9063 0 10.7096-4.8366 10.7096-10.784 0-5.9473-4.8033-10.784-10.7096-10.784Zm0 18.3065c-4.1214 0-7.4807-3.3826-7.4807-7.5326s3.3593-7.5326 7.4807-7.5326c4.1214 0 7.4807 3.3826 7.4807 7.5326s-3.3593 7.5326-7.4807 7.5326Z"/><path d="M86.2086 49.1237c2.1433 0 3.8808-1.7495 3.8808-3.9077 0-2.1581-1.7375-3.9077-3.8808-3.9077-2.1432 0-3.8807 1.7496-3.8807 3.9077 0 2.1582 1.7375 3.9077 3.8807 3.9077ZM27.857 6.8965l-14.0188-.01-1.5342 11.6422h15.553V6.8965ZM48.3438 6.9268l-17.0372-.0202v11.6221h17.0372V6.9268ZM68.2791 6.947l-16.4856-.0202v11.6019h21.7903L68.2791 6.947Z"/></g><defs><clipPath id="a"><path fill="#fff" d="M0 0h112v56H0z"/></clipPath></defs></svg>