<svg width="73" height="69" fill="none" xmlns="http://www.w3.org/2000/svg"><path d="M36.5 63.25c-.7097 0-1.318-.1917-1.825-.575-.5069-.3833-.8871-.8865-1.1406-1.5094-.9632-2.6833-2.1798-5.1989-3.65-7.5469-1.4194-2.3479-3.4219-5.1031-6.0073-8.2656-2.5854-3.1625-4.6892-6.1812-6.3114-9.0562-1.5716-2.875-2.3573-6.349-2.3573-10.4219 0-5.6063 2.0531-10.35 6.1593-14.2313C25.5247 7.7146 30.5688 5.75 36.5 5.75c5.9313 0 10.95 1.9646 15.0563 5.8937 4.1569 3.8813 6.2354 8.625 6.2354 14.2313 0 4.3604-.8871 8.0021-2.6614 10.925-1.7237 2.875-3.7261 5.726-6.0073 8.5531-2.7375 3.45-4.816 6.325-6.2355 8.625-1.3687 2.2521-2.5093 4.6479-3.4218 7.1875-.2535.6709-.6591 1.1979-1.2167 1.5813-.5069.3354-1.0899.5031-1.749.5031Zm0-30.1875c2.1292 0 3.9289-.6948 5.399-2.0844 1.4701-1.3896 2.2052-3.0906 2.2052-5.1031 0-2.0125-.7351-3.7135-2.2052-5.1031-1.4701-1.3896-3.2698-2.0844-5.399-2.0844-2.1291 0-3.9288.6948-5.3989 2.0844-1.4702 1.3896-2.2052 3.0906-2.2052 5.1031 0 2.0125.735 3.7135 2.2052 5.1031 1.4701 1.3896 3.2698 2.0844 5.3989 2.0844Z" fill="#fff"/></svg>