<svg width="46" height="50" fill="none" xmlns="http://www.w3.org/2000/svg"><g clip-path="url(#a)" fill="#fff"><path d="M12.1066 38.9557h-2.0879v2.1412h2.0879v-2.1412ZM12.1066 35.6974h-2.0879v2.1412h2.0879v-2.1412ZM12.1066 32.5321h-2.0879v2.1412h2.0879v-2.1412ZM12.1066 29.2823h-2.0879v2.1412h2.0879v-2.1412ZM12.1066 26.1086h-2.0879v2.1412h2.0879v-2.1412Z"/><path d="M15.8615 50h-.1651L.4209 45.887C.1733 45.8023 0 45.6331 0 45.3707V7.3629c0-.1692.0825-.3385.2476-.4316.165-.0846.3383-.0846.5034-.0846l4.5884 1.6249c.2476.0846.421.4316.3384.6855-.0825.2539-.4209.4316-.6685.3385l-3.92-1.371v36.8145l14.863 4.02c.2476.0846.4209.3385.3301.6855.0825.1692-.1651.347-.4209.347V50Z"/><path d="M15.8615 50c-.0825 0-.2476 0-.3301-.0847-.1651-.0846-.1651-.2538-.1651-.4316l.0826-28.2498c0-.2539.2475-.5162.5034-.5162.2475 0 .5034.2538.5034.5162l-.0826 27.4797 13.2702-3.9354c.2476-.0846.586.0847.6685.3386.0825.2539-.0825.6008-.3384.6855l-13.9386 4.113c-.055.0565-.11.0847-.1651.0847h-.0082ZM22.4553 11.2136c-.2476 0-.4209-.1693-.5034-.347-.0825-.2539 0-.6009.3301-.6855l7.3448-2.8267c.2476-.0846.5859 0 .6685.347.0825.2539 0 .6009-.3384.6855l-7.3448 2.8267h-.1651.0083Z"/><path d="M45.4966 50h-.165l-15.614-4.113c-.2475-.0847-.4208-.2539-.4208-.5163V7.8792c0-.1693.0825-.3385.165-.4316.1651-.0847.3301-.1693.4209-.0847l15.6964 4.367c.2476.0846.4209.2539.4209.5162v37.2377c0 .1693-.0825.347-.165.4316-.1651.0846-.2476.0846-.3301.0846h-.0083Zm-15.1105-5.0524 14.6071 3.8507v-36.129l-14.6071-4.113v36.3913ZM13.8562 24.5684c-.1651 0-.3301-.0846-.4209-.1693-.8335-1.1086-8.0958-10.5281-8.5992-12.8385l-.0826-.3385c-.0825-.6009-.165-1.1172-.165-1.7096v-.5162C4.8443 3.9353 8.8468 0 13.7736 0s9.1852 4.2823 9.1852 9.4194c0 .4317 0 .8548-.0825 1.2864 0 .1693 0 .2539-.0826.4316l-.0825.347c-.2476 1.2864-2.418 4.6209-6.5113 10.105-1.1719 1.6249-2.0879 2.742-2.0879 2.742.0825.1693-.0825.2539-.2476.2539l-.0082-.0169Zm0-23.5444c-4.3409 0-7.9308 3.5122-8.1784 7.9638v.4232c0 .5162.0826 1.024.1651 1.5403l.0825.2538c.3384 1.5403 4.8443 7.7946 8.0133 11.8992.3301-.5163.9986-1.2864 1.667-2.2258 3.755-5.0525 6.0904-8.6493 6.3463-9.6734l.0825-.2538c0-.0847 0-.2539.0825-.3386.0826-.4316.0826-.7701.0826-1.2017-.1651-4.6209-3.8375-8.387-8.3517-8.387h.0083Z"/><path d="M13.8561 13.1856c-2.253 0-4.0933-1.8873-4.0933-4.1977 0-2.3105 1.8403-4.1977 4.0933-4.1977s4.0933 1.8872 4.0933 4.1977c0 2.3104-1.8403 4.1977-4.0933 4.1977Zm0-7.2783c-1.667 0-3.0039 1.371-3.0039 3.0806 0 1.7095 1.3369 3.0805 3.0039 3.0805 1.667 0 3.004-1.371 3.004-3.0805 0-1.7096-1.337-3.0806-3.004-3.0806ZM40.2397 48.0281c-.2475 0-.5034-.2539-.5034-.5163V20.7177c0-.2539.2476-.5163.5034-.5163.2559 0 .5034.2539.5034.5163v26.7941c.0826.2539-.165.5163-.5034.5163ZM40.2397 18.0602c-.2475 0-.5034-.2539-.5034-.5162v-1.1087c0-.2539.2476-.5162.5034-.5162.2559 0 .5034.2539.5034.5162v1.1087c.0826.2539-.165.5162-.5034.5162ZM20.4499 48.0281c-.2475 0-.5034-.2539-.5034-.5162V30.391c0-.2539.2476-.5162.5034-.5162.2559 0 .5035.2538.5035.5162v17.1209c0 .2538-.2476.5162-.5035.5162Z"/></g><defs><clipPath id="a"><path fill="#fff" d="M0 0h46v50H0z"/></clipPath></defs></svg>