<svg width="53" height="39" fill="none" xmlns="http://www.w3.org/2000/svg"><g clip-path="url(#a)" fill="#fff"><path d="M16.55 4.4446v.1871c.4642.1871.8284.4772 1.1015.758-.1821-.758-.6464-1.3288-1.2017-1.703 0 .2807.0911.4771.0911.7579h.0091ZM33.0363 18.5549l-.3642.0936 2.4852.8515.0911-.1872-2.2121-.7579ZM14.438 39.0001H.619c-.182 0-.364-.0936-.5552-.2808-.091-.1871-.091-.4772 0-.5707l17.961-26.0312c.091-.1872.2731-.2807.4642-.2807.1912 0 .3733.0935.4643.1871l5.6168 7.2891c.1821.2807.1821.6644-.091.8515-.2731.1871-.6464.1871-.8284-.0936l-5.0615-6.7183-16.8595 24.506H14.438c.2731 0 .5553.2807.5553.5708 0 .29-.2731.5708-.5553.5708Z"/><path d="M52.3718 39.0001H14.4379c-.182 0-.3732-.0936-.4642-.2807-.0911-.1872-.0911-.3743 0-.5708l12.4352-23.7574 5.5258-10.508c.091-.187.2731-.2807.4643-.2807.1911 0 .3641.0936.5553.2807l19.9819 34.359c.0911.1871.0911.3836 0 .5708-.091.0935-.2731.1871-.5553.1871h-.0091Zm-37.0144-1.1416h36.0039L32.3899 5.2962 15.3574 37.8585Z"/><path d="M35.1573 20.0708h-.1821l-3.3136-1.1322-3.3136 1.1322c-.1821.0936-.2731 0-.4643 0-.1821-.0936-.2731-.1871-.2731-.3743l-1.1925-4.7346c-.0911-.2807.091-.6644.4642-.7579.2731-.0936.6464.0935.7374.4772l1.0105 4.0703 2.8584-.9451h.3642l3.0405 1.0386 3.2226-4.351c.1821-.2807.5553-.2807.8284-.0935.2731.1871.2731.5707.0911.8515l-3.4957 4.7346s-.1821.0936-.3733.0936l-.0091-.0094ZM15.5395 24.7962c-.182 0-.3732-.0936-.4642-.2807l-2.3032-3.5931c-.1821-.2808-.091-.6644.1821-.8515.2731-.1872.6463-.0936.8284.1871l2.03 3.0317 2.9495-2.0866c.2731-.1872.6464-.0936.8284.1871.1821.2807.0911.6644-.182.8515l-3.4957 2.4609c-.0911.0936-.2731.0936-.3642.0936h-.0091ZM15.0843 9.4693H7.9017c-1.839 0-3.2226-1.5158-3.2226-3.3124 0-1.89 1.4747-3.3123 3.2226-3.3123h.4642c.5554-.5708 1.2927-.8515 2.0301-.945C10.9513.7672 12.0528.0093 13.3455.0093c1.7479 0 3.1316 1.4223 3.2226 3.1252 1.1015.5708 1.8389 1.703 1.8389 3.0317-.091 1.7966-1.5658 3.3124-3.3136 3.3124l-.0091-.0094ZM7.8926 3.8832c-1.2017 0-2.1211.945-2.1211 2.1802 0 1.2351.9194 2.1802 2.121 2.1802h7.1827c1.1925 0 2.1211-.945 2.1211-2.1802 0-.945-.5554-1.703-1.3838-2.0866-.2731-.0936-.3641-.3743-.3641-.5708v-.0936c0-1.2351-.9194-2.1802-2.1211-2.1802-.9194 0-1.6568.5708-2.0209 1.4223-.0911.2807-.2731.3836-.5554.3836h-.091c-.6463 0-1.1925.2808-1.6568.758-.182.1871-.3641.2807-.5553.1871-.2731.0936-.3642 0-.5553 0ZM37.4605 3.4995c-.1821 0-.4643-.0935-.5553-.2807-.1821-.2807 0-.6643.2731-.7579.091-.0936 2.6673-1.3287 4.142.0936.1821.1871.1821.5708 0 .8515-.182.1871-.5553.1871-.8284 0-.7373-.758-2.3031-.1872-2.7674.0935h-.2731.0091Z"/><path d="M44.3609 3.4995c-.091 0-.1821 0-.2731-.0936 0 0-1.9299-.945-2.7583-.0935-.1821.1871-.5553.1871-.8284 0-.1821-.1872-.1821-.5708 0-.8515 1.4747-1.5159 4.051-.1872 4.142-.0936.2731.1871.3641.4772.2731.758-.1821.2806-.3732.3742-.5553.3742ZM43.1683 7.5699c-.1821 0-.3733-.0936-.5553-.2807-.1821-.2808 0-.6644.2731-.758.091-.0935 2.6673-1.3287 4.142.0936.1821.1871.1821.5708 0 .8515-.1821.1871-.5553.1871-.8284 0-.7374-.758-2.3032-.1871-2.7674.0936h-.2731.0091Z"/><path d="M50.0778 7.5698c-.0911 0-.1821 0-.2731-.0935 0 0-1.93-.9451-2.7675-.0936-.182.1871-.5553.1871-.8284 0-.1821-.1872-.1821-.5708 0-.8515 1.4748-1.5159 4.051-.1871 4.1421-.0936.2731.1872.3732.4772.2731.758-.0911.2807-.2731.3742-.5553.3742h.0091Z"/></g><defs><clipPath id="a"><path fill="#fff" d="M0 0h53v39H0z"/></clipPath></defs></svg>