<svg width="54" height="53" fill="none" xmlns="http://www.w3.org/2000/svg"><g clip-path="url(#a)" stroke="#fff" stroke-width="2" stroke-miterlimit="10"><path d="M29.9313 3.7373c2.6783-.4807 5.5847 3.2008 6.204 6.6513s-1.0497 6.6343-3.733 7.1159c-2.6833.4817-5.3554-1.923-5.9747-5.3735s.8203-7.912 3.5037-8.3937ZM16.1413 6.2125c2.6784-.4808 5.5848 3.2008 6.2041 6.6513s-1.0497 6.6343-3.733 7.1159c-2.6833.4816-5.3554-1.923-5.9747-5.3735-.6194-3.4505.8253-7.913 3.5036-8.3937ZM4.8748 27.0129c-1.6505-2.6393-1.8821-6.8214.2247-8.1387 2.1077-1.3124 5.7641.736 7.4155 3.3802 1.6505 2.6394 1.2756 5.8475-.8321 7.1598-2.1077 1.3124-5.1576.2381-6.8031-2.4022l-.005.0009ZM47.7283 19.3213c-.6296 3.0486-3.1097 5.1206-5.5431 4.6182-2.4325-.4975-3.8997-3.375-3.2701-6.4235.6296-3.0486 3.3396-6.2447 5.7771-5.7482 2.4325.4974 3.6657 4.5049 3.0411 7.5526l-.005.0009ZM46.4827 35.7725c-.9413-2.238-2.5575-4.1136-4.2763-5.8169-4.0352-3.987-10.0101-7.672-15.8745-6.6194-5.8396 1.0481-10.1848 6.5855-12.5816 11.7269-1.0242 2.1956-1.8863 4.5212-1.9864 6.941-.1042 2.4257.6521 4.9791 2.4358 6.6143 1.7838 1.6352 4.6914 2.0884 6.6532.679 1.1647-.8402 1.9748-2.2533 3.3582-2.6196 1.2697-.3408 2.5659.3246 3.7706.8526.8703.3826 1.8919.6919 2.7948.5402.8952-.1659 1.7504-.812 2.4325-1.4785.945-.9189 1.9298-1.9886 3.2388-2.1106 1.4253-.1327 2.6762.9104 4.0595 1.2882 2.3245.64 4.8931-.7961 6.0018-2.9504 1.1037-2.1534.9248-4.8106-.0165-7.0486l-.0099.0018Zm-12.7559-.6101c-.4452 1.327-1.2997 2.5787-2.0327 3.5622a18.1166 18.1166 0 0 1-1.2646 1.5151c-.527.5565-1.3634.7066-2.051.3681a16.3167 16.3167 0 0 1-1.7125-.9808c-1.0293-.6671-2.2658-1.5435-3.1447-2.6328-.727-.9011-1.2071-1.944-1.1277-3.1335.0725-1.142.7665-2.2571 1.8028-2.5817 1.197-.3739 2.7801.2298 3.7642 1.0744.6289-1.1341 1.9033-2.2507 3.1556-2.3164 1.0845-.0561 2.123.748 2.5881 1.7936.4891 1.0926.4016 2.2374.0325 3.33l-.01.0018Z"/></g><defs><clipPath id="a"><path fill="#fff" transform="rotate(-10.175 48.056 1.8159)" d="M0 0h45.7434v44.7905H0z"/></clipPath></defs></svg>